<svg width="168" height="31" viewBox="0 0 168 31" fill="none" xmlns="http://www.w3.org/2000/svg">
<path d="M33.432 14.0939V11.1635H45.1879V14.1001H40.7783V24.4389H37.8323V14.0939H33.432Z" fill="#00517C"/>
<path d="M46.515 11.1635H53.9574C55.0181 11.165 56.0426 11.5486 56.8436 12.2438C57.6445 12.9391 58.1682 13.8996 58.3189 14.9495C58.4695 15.9994 58.2369 17.0684 57.6638 17.9608C57.0906 18.8532 56.2152 19.5093 55.1978 19.8091L58.3609 24.4606H54.8288L51.7867 19.9889L49.7804 17.0554H53.9574C54.1576 17.0645 54.3575 17.033 54.5451 16.9627C54.7328 16.8925 54.9042 16.7849 55.0491 16.6465C55.194 16.5081 55.3093 16.3417 55.3881 16.1575C55.4669 15.9733 55.5075 15.775 55.5075 15.5746C55.5075 15.3743 55.4669 15.176 55.3881 14.9918C55.3093 14.8075 55.194 14.6412 55.0491 14.5028C54.9042 14.3644 54.7328 14.2568 54.5451 14.1865C54.3575 14.1163 54.1576 14.0847 53.9574 14.0939H49.4486V24.4389H46.515V11.1635Z" fill="#00517C"/>
<path d="M62.6216 11.1635V24.4389H59.7004V11.1635H62.6216Z" fill="#00517C"/>
<path d="M63.9488 24.4389V11.1635H70.126C71.7612 11.17 73.3277 11.822 74.4845 12.9777C75.6414 14.1334 76.295 15.6992 76.3032 17.3345V18.2648C76.2958 19.9005 75.6426 21.4671 74.4856 22.6235C73.3287 23.7798 71.7617 24.4323 70.126 24.4389H63.9488ZM73.3665 17.3345C73.3633 16.476 73.0208 15.6537 72.4138 15.0466C71.8068 14.4396 70.9844 14.0972 70.126 14.0939H66.873V21.5053H70.126C70.9844 21.502 71.8068 21.1596 72.4138 20.5526C73.0208 19.9455 73.3633 19.1232 73.3665 18.2648V17.3345Z" fill="#00517C"/>
<path d="M80.5518 19.2602V24.4389H77.6275V11.1635H80.5518V16.339H86.3537V11.1635H89.278V24.4389H86.3537V19.2602H80.5518Z" fill="#00517C"/>
<path d="M90.6022 11.1635H94.1497L97.2972 15.815L100.432 11.1635H103.964L98.7578 18.8881V24.4389H95.8212V18.8881L90.6022 11.1635Z" fill="#00517C"/>
<path d="M104.612 24.4389H101.307L101.784 23.5086L102.035 23.0155L103.313 20.5719L106.566 14.3172L108.225 11.1635L109.872 14.3389L113.14 20.5936L114.402 23.0372L114.669 23.5303L115.146 24.4606H111.825L111.348 23.5303H105.093L104.612 24.4389ZM108.225 17.505L106.619 20.5874H109.831L108.225 17.505Z" fill="#00517C"/>
<path d="M117.786 14.0939V11.1635H129.542V14.1001H125.132V24.4389H122.195V14.0939H117.786Z" fill="#06B6E8"/>
<path d="M133.79 19.2602V21.5053H141.614V24.4265H130.862V11.1449H141.607V14.0784H133.79V19.2602ZM135.961 16.3235H140.69V19.2602H134.894L135.961 16.3235Z" fill="#06B6E8"/>
<path d="M153.14 20.0572L155.025 20.972C154.617 21.7671 154.047 22.4676 153.351 23.0282C152.654 23.5887 151.848 23.9968 150.985 24.226C150.121 24.4552 149.218 24.5004 148.336 24.3586C147.453 24.2169 146.611 23.8914 145.862 23.4032C144.653 22.6035 143.74 21.4275 143.266 20.0572C143.061 19.3987 142.956 18.7128 142.956 18.023V17.5733C142.956 16.8834 143.061 16.1976 143.266 15.539C143.743 14.1674 144.658 12.9913 145.871 12.1931C146.62 11.7059 147.462 11.3809 148.343 11.239C149.225 11.0972 150.126 11.1416 150.99 11.3695C151.853 11.5974 152.659 12.0037 153.356 12.5621C154.052 13.1206 154.624 13.8188 155.035 14.6118L153.149 15.5421L152.405 15.9143C152.124 15.3959 151.715 14.9575 151.218 14.6401C150.72 14.3227 150.151 14.1367 149.562 14.0995C148.973 14.0623 148.385 14.1751 147.851 14.4275C147.318 14.6798 146.858 15.0633 146.513 15.5421C146.096 16.1387 145.87 16.8482 145.865 17.5764V18.0261C145.869 18.7544 146.095 19.4642 146.513 20.0603C146.836 20.5086 147.262 20.8736 147.754 21.1254C148.245 21.3772 148.79 21.5085 149.343 21.5085C149.896 21.5085 150.44 21.3772 150.932 21.1254C151.424 20.8736 151.849 20.5086 152.173 20.0603C152.256 19.9415 152.332 19.8172 152.399 19.6882L153.14 20.0572Z" fill="#06B6E8"/>
<path d="M159.274 19.2602V24.4389H156.353V11.1635H159.274V16.339H165.079V11.1635H168V24.4389H165.079V19.2602H159.274Z" fill="#06B6E8"/>
<path d="M41.8076 0H33.4938V8.3138H41.8076V0Z" fill="#00517C"/>
<path d="M22.3521 0H11.2505V8.31379H22.287V19.5208H30.6659V8.31379V7.78662V0H22.3521Z" fill="#00517C"/>
<path d="M11.1543 11.1667H0V19.5301H11.1543V25.1429V30.6813H19.5177V25.1429V19.5301V16.7826V11.1667H11.1543Z" fill="#06B6E8"/>
<path d="M30.6658 11.1852H22.2869V19.5207H30.6658V11.1852Z" fill="#06B6E8"/>
</svg>
