<svg width="13" height="14" viewBox="0 0 13 14" fill="none" xmlns="http://www.w3.org/2000/svg">
<path d="M5.83494 0.000671387C2.61937 0.000671387 0 2.62004 0 5.83562C0 9.05117 2.61937 11.6756 5.83494 11.6756C7.2084 11.6756 8.47157 11.1943 9.4699 10.3952L11.9004 12.8244C12.023 12.9419 12.1869 13.0068 12.3568 13.0051C12.5266 13.0033 12.6891 12.9351 12.8093 12.8151C12.9296 12.695 12.998 12.5327 13 12.3628C13.0019 12.1929 12.9373 12.029 12.8199 11.9062L10.3894 9.47569C11.1892 8.47582 11.6711 7.21067 11.6711 5.83562C11.6711 2.62004 9.0505 0.000671387 5.83494 0.000671387ZM5.83494 1.29763C8.34959 1.29763 10.3729 3.32097 10.3729 5.83562C10.3729 8.35026 8.34959 10.3787 5.83494 10.3787C3.32029 10.3787 1.29693 8.35026 1.29693 5.83562C1.29693 3.32097 3.32029 1.29763 5.83494 1.29763Z" fill="#00517C" fill-opacity="0.75"/>
</svg>
